<?xml version="1.0" encoding="utf-8"?>
<!-- Generator: Adobe Illustrator 28.3.0, SVG Export Plug-In . SVG Version: 6.00 Build 0)  -->
<svg version="1.1" id="Layer_1" xmlns="http://www.w3.org/2000/svg" xmlns:xlink="http://www.w3.org/1999/xlink" x="0px" y="0px"
	 viewBox="0 0 1080 1080" style="enable-background:new 0 0 1080 1080;" xml:space="preserve">
<style type="text/css">
	.st0{fill:#FDFAE1;}
	.st1{fill:#2B351A;}
	.st2{fill:#FFFFFF;}
</style>
<g>
	<path class="st0" d="M808.89,247.59H611.81c-4.62,0-9.03-1.41-12.29-3.92l-41.95-32.22c-0.26-0.21-0.07-0.54,0.28-0.54h227.72
		C794.1,222.59,801.9,234.83,808.89,247.59z"/>
	<ellipse class="st0" cx="668.64" cy="202.33" rx="47.91" ry="41.88"/>
	<g>
		<g>
			<path class="st1" d="M169.51,877.43c-12.73-3.69-22.95-8.5-30.67-14.41l13.55-30.05c7.39,5.42,16.17,9.77,26.36,13.05
				c10.18,3.29,20.36,4.93,30.55,4.93c11.33,0,19.71-1.68,25.13-5.05c5.42-3.36,8.13-7.84,8.13-13.43c0-4.1-1.6-7.51-4.8-10.22
				c-3.2-2.71-7.31-4.88-12.32-6.53c-5.01-1.64-11.79-3.45-20.32-5.42c-13.14-3.12-23.9-6.24-32.27-9.36
				c-8.38-3.12-15.56-8.13-21.55-15.03c-6-6.9-8.99-16.09-8.99-27.59c0-10.01,2.71-19.09,8.13-27.22
				c5.42-8.13,13.59-14.57,24.51-19.34c10.92-4.76,24.27-7.14,40.03-7.14c11,0,21.76,1.32,32.27,3.94
				c10.51,2.63,19.71,6.41,27.59,11.33l-12.32,30.3c-15.93-9.03-31.86-13.55-47.79-13.55c-11.17,0-19.42,1.81-24.76,5.42
				c-5.34,3.62-8.01,8.38-8.01,14.29s3.08,10.31,9.24,13.18c6.16,2.88,15.56,5.7,28.2,8.5c13.14,3.12,23.9,6.25,32.27,9.36
				c8.38,3.12,15.56,8.05,21.55,14.78c5.99,6.74,8.99,15.85,8.99,27.34c0,9.85-2.75,18.85-8.25,26.98
				c-5.5,8.13-13.76,14.58-24.76,19.34c-11.01,4.76-24.39,7.14-40.16,7.14C195.41,882.98,182.23,881.13,169.51,877.43z"/>
			<path class="st1" d="M467.7,707.58v172.44h-39.91v-70.7h-78.34v70.7h-39.91V707.58h39.91v67.99h78.34v-67.99H467.7z"/>
			<path class="st1" d="M508.59,707.58h39.91v172.44h-39.91V707.58z"/>
			<path class="st1" d="M699.26,880.02L666,831.99h-1.97H629.3v48.04h-39.91V707.58h74.64c15.27,0,28.53,2.55,39.78,7.64
				c11.25,5.09,19.91,12.32,25.99,21.68c6.07,9.36,9.11,20.45,9.11,33.26c0,12.81-3.08,23.86-9.24,33.13
				c-6.16,9.28-14.9,16.38-26.24,21.31l38.68,55.43H699.26z M689.16,747.86c-6.24-5.17-15.36-7.76-27.34-7.76H629.3v60.11h32.52
				c11.99,0,21.1-2.63,27.34-7.88c6.24-5.25,9.36-12.64,9.36-22.17C698.52,760.46,695.4,753.03,689.16,747.86z"/>
			<path class="st1" d="M884.01,843.07h-80.06l-15.27,36.95h-40.89l76.86-172.44h39.41l77.1,172.44h-41.88L884.01,843.07z
				 M871.45,812.77l-27.34-66.02l-27.35,66.02H871.45z"/>
		</g>
		<g>
			<path class="st1" d="M368.73,923.57v67.55H353.1v-27.7h-30.69v27.7h-15.63v-67.55h15.63v26.63h30.69v-26.63H368.73z"/>
			<path class="st1" d="M422.92,987.75c-5.63-3.03-10.04-7.19-13.22-12.5c-3.18-5.31-4.78-11.27-4.78-17.9
				c0-6.63,1.59-12.59,4.78-17.9c3.18-5.31,7.59-9.47,13.22-12.49c5.63-3.02,11.95-4.54,18.96-4.54c7.02,0,13.32,1.51,18.92,4.54
				c5.6,3.03,10,7.19,13.22,12.49c3.22,5.31,4.82,11.28,4.82,17.9c0,6.63-1.6,12.59-4.82,17.9c-3.22,5.31-7.62,9.47-13.22,12.5
				c-5.6,3.02-11.9,4.54-18.92,4.54C434.87,992.28,428.55,990.77,422.92,987.75z M452.69,976.21c3.21-1.83,5.74-4.39,7.58-7.67
				c1.83-3.28,2.75-7.01,2.75-11.2c0-4.18-0.91-7.91-2.75-11.19c-1.83-3.28-4.36-5.84-7.58-7.68c-3.22-1.83-6.82-2.75-10.81-2.75
				s-7.59,0.92-10.81,2.75c-3.22,1.84-5.74,4.39-7.58,7.68c-1.83,3.28-2.75,7.01-2.75,11.19c0,4.18,0.92,7.91,2.75,11.2
				c1.83,3.28,4.36,5.84,7.58,7.67c3.21,1.83,6.82,2.75,10.81,2.75S449.47,978.05,452.69,976.21z"/>
			<path class="st1" d="M576.5,991.12l-0.1-40.53l-19.88,33.39h-7.04l-19.78-32.52v39.66h-14.67v-67.55h12.93l25.29,41.98
				l24.9-41.98h12.83l0.2,67.55H576.5z"/>
			<path class="st1" d="M683.91,978.58v12.54h-52.31v-67.55h51.05v12.54h-35.51v14.67h31.36v12.16h-31.36v15.63H683.91z"/>
			<path class="st1" d="M727.48,990.11c-4.99-1.45-8.99-3.33-12.02-5.65l5.31-11.77c2.89,2.12,6.34,3.83,10.32,5.11
				c3.99,1.29,7.98,1.93,11.97,1.93c4.44,0,7.72-0.66,9.84-1.98c2.12-1.32,3.19-3.07,3.19-5.26c0-1.61-0.63-2.94-1.88-4
				c-1.25-1.06-2.86-1.92-4.83-2.56c-1.96-0.64-4.62-1.35-7.96-2.12c-5.15-1.22-9.36-2.45-12.64-3.67c-3.28-1.22-6.1-3.18-8.44-5.89
				c-2.35-2.7-3.52-6.3-3.52-10.81c0-3.93,1.06-7.48,3.19-10.67c2.12-3.18,5.32-5.71,9.6-7.57c4.28-1.87,9.51-2.8,15.68-2.8
				c4.31,0,8.53,0.51,12.64,1.54c4.11,1.03,7.72,2.51,10.81,4.44l-4.83,11.87c-6.24-3.54-12.48-5.31-18.72-5.31
				c-4.37,0-7.61,0.71-9.7,2.12c-2.09,1.42-3.14,3.28-3.14,5.6s1.2,4.04,3.62,5.16c2.41,1.13,6.09,2.24,11.05,3.33
				c5.15,1.22,9.36,2.45,12.64,3.67c3.28,1.22,6.1,3.15,8.44,5.79c2.35,2.64,3.52,6.21,3.52,10.71c0,3.86-1.08,7.38-3.23,10.57
				c-2.16,3.19-5.39,5.71-9.7,7.58c-4.31,1.87-9.55,2.8-15.73,2.8C737.63,992.28,732.47,991.56,727.48,990.11z"/>
		</g>
	</g>
	<polygon class="st0" points="795.62,350.32 795.62,552.35 295.95,552.35 295.95,326.23 369.74,326.23 310.75,267.23 363.57,214.41 
		397.81,180.17 397.81,146.54 489.2,108.63 567.92,146.54 542.27,193.36 557.04,220.12 716.91,330.49 791.16,326.23 	"/>
	<path class="st1" d="M482.29,613.55H272.27c-5.79,0-10.49-4.7-10.49-10.49l0,0c0-5.79,4.7-10.49,10.49-10.49h210.02
		c5.79,0,10.49,4.7,10.49,10.49l0,0C492.78,608.85,488.09,613.55,482.29,613.55z"/>
	<path class="st1" d="M478.71,653.29H359.98c-5.79,0-10.49-4.7-10.49-10.49l0,0c0-5.79,4.7-10.49,10.49-10.49h118.73
		c5.79,0,10.49,4.7,10.49,10.49l0,0C489.2,648.6,484.5,653.29,478.71,653.29z"/>
	<path class="st1" d="M706.42,653.29H530.91c-5.79,0-10.49-4.7-10.49-10.49l0,0c0-5.79,4.7-10.49,10.49-10.49h175.51
		c5.79,0,10.49,4.7,10.49,10.49l0,0C716.91,648.6,712.21,653.29,706.42,653.29z"/>
	<path class="st1" d="M794.28,613.55H584.26c-5.79,0-10.49-4.7-10.49-10.49l0,0c0-5.79,4.7-10.49,10.49-10.49h210.02
		c5.79,0,10.49,4.7,10.49,10.49l0,0C804.77,608.85,800.07,613.55,794.28,613.55z"/>
	<path class="st2" d="M483.69,177.18c0,0.07,0.01,0.12,0.03,0.19h-2.89C481.79,177.37,482.75,177.32,483.69,177.18z"/>
	<path class="st1" d="M876.64,538.96h-69.92c3.09-5.55,6.02-11.22,8.76-16.97c18.91-39.58,29.48-83.88,29.48-130.65
		c0-52.74-13.45-102.36-37.11-145.57h-180.7c-4.24,0-8.28-1.29-11.26-3.6l-38.46-29.54c-0.25-0.18-0.07-0.49,0.26-0.49h44.97
		c-0.6-2.54-0.93-5.17-0.93-7.87c0-21.2,19.68-38.4,43.94-38.4s43.93,17.19,43.93,38.4c0,2.7-0.32,5.33-0.93,7.87h77.8
		C731.22,136.71,641.99,87.72,541.34,87.72c-167.69,0-303.62,135.95-303.62,303.62c0,43.84,9.29,85.51,26.02,123.15
		c3.71,8.36,7.8,16.52,12.22,24.47h-72.6c-3.84,0-7.31,1.56-9.83,4.07c-2.5,2.51-4.06,6-4.06,9.82c0,7.68,6.21,13.89,13.89,13.89
		h673.28c3.84,0,7.3-1.56,9.82-4.06c2.51-2.51,4.07-6,4.07-9.83C890.53,545.18,884.31,538.96,876.64,538.96z M542.03,241.49
		l155.06,108.83h-44.47l-110.58-77.61l-110.57,77.61h-44.47L542.03,241.49z M610.71,350.33H473.39l68.66-48.2L610.71,350.33z
		 M420,162.16c3.97-3.89,9.43-6.3,15.49-6.3h22.52c-0.03-0.45-0.04-0.89-0.04-1.35c0-12.63,10.23-22.87,22.87-22.87
		c11.49,0,21.02,8.5,22.62,19.54c0.94-0.13,1.9-0.19,2.87-0.19c12.62,0,22.85,10.23,22.85,22.87c0,0.35-0.01,0.68-0.02,1.04
		c-0.03,0.82-0.12,1.66-0.25,2.47h-45.19c-0.01-0.07-0.02-0.12-0.02-0.19c-0.95,0.13-1.9,0.19-2.87,0.19h-67.24
		C413.59,171.42,416.03,166.05,420,162.16z M336.61,538.96h-25.78v-185.5l25.78,13.89V538.96z M343.03,254.26
		c0-4.99,4.05-9.04,9.04-9.04h85.5c4.99,0,9.04,4.05,9.04,9.04s-4.05,9.04-9.04,9.04h-85.5
		C347.08,263.3,343.03,259.25,343.03,254.26z M440.19,538.96h-78.9V381.03h78.9V538.96z M567.92,496.85h-51.74v-70.1h51.74V496.85z
		 M615.91,538.96h-24.58V405.6h-98.54v133.36H468.2V381.03h147.71V538.96z M722.59,538.96H643.7V381.03h78.89V538.96z
		 M772.12,538.96h-25.78V367.35l25.78-13.89V538.96z"/>
	<path class="st1" d="M860.07,538.97h-53.36c3.09-5.55,6.02-11.22,8.77-16.97c12.76-14.17,29.85-26.61,45.61-16.81
		C882.45,518.47,869.53,532.11,860.07,538.97z"/>
	<path class="st1" d="M275.96,538.97H226.6c-9.44-6.87-22.36-20.49-1.01-33.78c12.86-8,26.6-1.18,38.15,9.31
		C267.45,522.86,271.54,531.02,275.96,538.97z"/>
	<rect x="669.99" y="420.32" class="st1" width="27.1" height="27.1"/>
	<rect x="669.99" y="458.28" class="st1" width="27.1" height="27.1"/>
	<rect x="387.19" y="420.32" class="st1" width="27.1" height="27.1"/>
	<rect x="387.19" y="458.28" class="st1" width="27.1" height="27.1"/>
</g>
</svg>
